<svg xmlns="http://www.w3.org/2000/svg" viewBox="0 0 4096 11665">
  <rect x="1196" y="1" width="42" height="113" rx="10" ry="10" />
  <rect x="2030" y="113" width="42" height="214" rx="10" ry="10" />
  <rect x="1805" y="249" width="41" height="110" rx="10" ry="10" />
  <rect x="1918" y="261" width="42" height="103" rx="10" ry="10" />
  <rect x="325" y="349" width="42" height="66" rx="10" ry="10" />
  <rect x="249" y="368" width="42" height="73" rx="10" ry="10" />
  <rect x="933" y="370" width="42" height="158" rx="10" ry="10" />
  <rect x="2107" y="397" width="41" height="296" rx="10" ry="10" />
  <rect x="287" y="430" width="42" height="66" rx="10" ry="10" />
  <rect x="3659" y="443" width="41" height="78" rx="10" ry="10" />
  <rect x="3697" y="534" width="41" height="102" rx="10" ry="10" />
  <rect x="3772" y="582" width="42" height="60" rx="10" ry="10" />
  <rect x="1541" y="587" width="41" height="486" rx="10" ry="10" />
  <rect x="211" y="599" width="42" height="78" rx="10" ry="10" />
  <rect x="3809" y="624" width="41" height="71" rx="10" ry="10" />
  <rect x="2183" y="626" width="42" height="450" rx="10" ry="10" />
  <rect x="3734" y="636" width="42" height="60" rx="10" ry="10" />
  <rect x="3621" y="685" width="41" height="66" rx="10" ry="10" />
  <rect x="1993" y="801" width="41" height="183" rx="10" ry="10" />
  <rect x="249" y="864" width="42" height="72" rx="10" ry="10" />
  <rect x="1842" y="912" width="42" height="154" rx="10" ry="10" />
  <rect x="1765" y="913" width="42" height="129" rx="10" ry="10" />
  <rect x="325" y="993" width="42" height="55" rx="10" ry="10" />
  <rect x="2106" y="1023" width="42" height="170" rx="10" ry="10" />
  <rect x="3658" y="1044" width="42" height="85" rx="10" ry="10" />
  <rect x="287" y="1075" width="42" height="48" rx="10" ry="10" />
  <rect x="326" y="1124" width="42" height="66" rx="10" ry="10" />
  <rect x="2031" y="1164" width="42" height="593" rx="10" ry="10" />
  <rect x="287" y="1193" width="42" height="66" rx="10" ry="10" />
  <rect x="1843" y="1283" width="41" height="254" rx="10" ry="10" />
  <rect x="3622" y="1327" width="41" height="86" rx="10" ry="10" />
  <rect x="1728" y="1408" width="42" height="328" rx="10" ry="10" />
  <rect x="1122" y="1530" width="42" height="195" rx="10" ry="10" />
  <rect x="212" y="1573" width="42" height="78" rx="10" ry="10" />
  <rect x="1388" y="1675" width="42" height="134" rx="10" ry="10" />
  <rect x="1577" y="1809" width="42" height="128" rx="10" ry="10" />
  <rect x="1728" y="1933" width="42" height="164" rx="10" ry="10" />
  <rect x="1842" y="1937" width="42" height="160" rx="10" ry="10" />
  <rect x="2031" y="2104" width="42" height="147" rx="10" ry="10" />
  <rect x="2298" y="2232" width="42" height="264" rx="10" ry="10" />
  <rect x="2184" y="2234" width="42" height="251" rx="10" ry="10" />
  <rect x="3885" y="2321" width="42" height="72" rx="10" ry="10" />
  <rect x="2487" y="2436" width="42" height="101" rx="10" ry="10" />
  <rect x="138" y="2587" width="42" height="60" rx="10" ry="10" />
  <rect x="3698" y="2615" width="42" height="226" rx="10" ry="10" />
  <rect x="3773" y="2615" width="42" height="225" rx="10" ry="10" />
  <rect x="2753" y="2616" width="42" height="231" rx="10" ry="10" />
  <rect x="2639" y="2622" width="42" height="238" rx="10" ry="10" />
  <rect x="479" y="2635" width="42" height="66" rx="10" ry="10" />
  <rect x="366" y="2642" width="42" height="73" rx="10" ry="10" />
  <rect x="327" y="2716" width="42" height="255" rx="10" ry="10" />
  <rect x="251" y="2729" width="42" height="132" rx="10" ry="10" />
  <rect x="3848" y="2939" width="41" height="73" rx="10" ry="10" />
  <rect x="175" y="2966" width="42" height="66" rx="10" ry="10" />
  <rect x="3810" y="3050" width="42" height="79" rx="10" ry="10" />
  <rect x="3735" y="3057" width="42" height="85" rx="10" ry="10" />
  <rect x="2032" y="3149" width="42" height="97" rx="10" ry="10" />
  <rect x="1578" y="3157" width="42" height="98" rx="10" ry="10" />
  <rect x="3660" y="3194" width="42" height="74" rx="10" ry="10" />
  <rect x="327" y="3220" width="41" height="137" rx="10" ry="10" />
  <rect x="250" y="3227" width="42" height="137" rx="10" ry="10" />
  <rect x="1578" y="3308" width="42" height="226" rx="10" ry="10" />
  <rect x="2032" y="3312" width="42" height="390" rx="10" ry="10" />
  <rect x="972" y="3324" width="42" height="274" rx="10" ry="10" />
  <rect x="516" y="3328" width="42" height="273" rx="10" ry="10" />
  <rect x="212" y="3346" width="42" height="80" rx="10" ry="10" />
  <rect x="288" y="3347" width="42" height="54" rx="10" ry="10" />
  <rect x="3623" y="3426" width="41" height="72" rx="10" ry="10" />
  <rect x="1692" y="3621" width="41" height="97" rx="10" ry="10" />
  <rect x="1882" y="3631" width="42" height="97" rx="10" ry="10" />
  <rect x="1579" y="3632" width="41" height="110" rx="10" ry="10" />
  <rect x="1237" y="3633" width="42" height="91" rx="10" ry="10" />
  <rect x="1427" y="3633" width="42" height="96" rx="10" ry="10" />
  <rect x="1692" y="3799" width="42" height="73" rx="10" ry="10" />
  <rect x="1882" y="3804" width="42" height="104" rx="10" ry="10" />
  <rect x="1579" y="3805" width="42" height="61" rx="10" ry="10" />
  <rect x="1428" y="3806" width="42" height="67" rx="10" ry="10" />
  <rect x="1237" y="3807" width="42" height="72" rx="10" ry="10" />
  <rect x="176" y="3898" width="42" height="98" rx="10" ry="10" />
  <rect x="1429" y="3973" width="42" height="97" rx="10" ry="10" />
  <rect x="1580" y="3978" width="41" height="72" rx="10" ry="10" />
  <rect x="1693" y="3979" width="41" height="71" rx="10" ry="10" />
  <rect x="1238" y="3980" width="42" height="72" rx="10" ry="10" />
  <rect x="1883" y="3990" width="42" height="72" rx="10" ry="10" />
  <rect x="251" y="4016" width="42" height="67" rx="10" ry="10" />
  <rect x="1693" y="4119" width="42" height="91" rx="10" ry="10" />
  <rect x="1884" y="4131" width="41" height="90" rx="10" ry="10" />
  <rect x="1239" y="4133" width="41" height="72" rx="10" ry="10" />
  <rect x="1580" y="4137" width="42" height="72" rx="10" ry="10" />
  <rect x="1429" y="4144" width="42" height="66" rx="10" ry="10" />
  <rect x="3700" y="4264" width="42" height="253" rx="10" ry="10" />
  <rect x="1429" y="4270" width="42" height="88" rx="10" ry="10" />
  <rect x="1694" y="4270" width="42" height="83" rx="10" ry="10" />
  <rect x="1884" y="4274" width="42" height="84" rx="10" ry="10" />
  <rect x="1581" y="4275" width="41" height="90" rx="10" ry="10" />
  <rect x="1239" y="4276" width="42" height="78" rx="10" ry="10" />
  <rect x="3662" y="4318" width="41" height="71" rx="10" ry="10" />
  <rect x="329" y="4335" width="41" height="192" rx="10" ry="10" />
  <rect x="3775" y="4396" width="42" height="73" rx="10" ry="10" />
  <rect x="1693" y="4401" width="42" height="84" rx="10" ry="10" />
  <rect x="252" y="4413" width="42" height="78" rx="10" ry="10" />
  <rect x="2148" y="4417" width="41" height="66" rx="10" ry="10" />
  <rect x="1769" y="4480" width="41" height="262" rx="10" ry="10" />
  <rect x="2224" y="4495" width="42" height="257" rx="10" ry="10" />
  <rect x="708" y="4497" width="42" height="256" rx="10" ry="10" />
  <rect x="1164" y="4500" width="41" height="244" rx="10" ry="10" />
  <rect x="3812" y="4511" width="42" height="72" rx="10" ry="10" />
  <rect x="3737" y="4524" width="42" height="97" rx="10" ry="10" />
  <rect x="214" y="4529" width="42" height="77" rx="10" ry="10" />
  <rect x="290" y="4535" width="42" height="72" rx="10" ry="10" />
  <rect x="3624" y="4573" width="42" height="66" rx="10" ry="10" />
  <rect x="1884" y="4681" width="42" height="67" rx="10" ry="10" />
  <rect x="1618" y="4689" width="42" height="72" rx="10" ry="10" />
  <rect x="2072" y="4692" width="41" height="54" rx="10" ry="10" />
  <rect x="1430" y="4695" width="41" height="60" rx="10" ry="10" />
  <rect x="2072" y="4814" width="42" height="74" rx="10" ry="10" />
  <rect x="1884" y="4816" width="42" height="74" rx="10" ry="10" />
  <rect x="1430" y="4817" width="41" height="80" rx="10" ry="10" />
  <rect x="1618" y="4817" width="42" height="79" rx="10" ry="10" />
  <rect x="1769" y="4823" width="42" height="60" rx="10" ry="10" />
  <rect x="3700" y="4856" width="42" height="192" rx="10" ry="10" />
  <rect x="3662" y="4868" width="42" height="73" rx="10" ry="10" />
  <rect x="329" y="4936" width="42" height="128" rx="10" ry="10" />
  <rect x="3776" y="4949" width="42" height="73" rx="10" ry="10" />
  <rect x="2415" y="4962" width="42" height="117" rx="10" ry="10" />
  <rect x="253" y="4972" width="41" height="67" rx="10" ry="10" />
  <rect x="1960" y="4972" width="41" height="110" rx="10" ry="10" />
  <rect x="974" y="5045" width="42" height="223" rx="10" ry="10" />
  <rect x="1884" y="5048" width="42" height="160" rx="10" ry="10" />
  <rect x="1430" y="5049" width="41" height="211" rx="10" ry="10" />
  <rect x="2339" y="5051" width="42" height="441" rx="10" ry="10" />
  <rect x="3625" y="5057" width="41" height="86" rx="10" ry="10" />
  <rect x="3738" y="5063" width="42" height="73" rx="10" ry="10" />
  <rect x="3812" y="5069" width="42" height="72" rx="10" ry="10" />
  <rect x="214" y="5092" width="42" height="86" rx="10" ry="10" />
  <rect x="290" y="5093" width="42" height="73" rx="10" ry="10" />
  <rect x="1884" y="5253" width="42" height="78" rx="10" ry="10" />
  <rect x="1694" y="5254" width="41" height="78" rx="10" ry="10" />
  <rect x="2148" y="5257" width="42" height="78" rx="10" ry="10" />
  <rect x="2035" y="5258" width="41" height="72" rx="10" ry="10" />
  <rect x="1581" y="5266" width="42" height="90" rx="10" ry="10" />
  <rect x="3776" y="5351" width="42" height="79" rx="10" ry="10" />
  <rect x="2035" y="5402" width="42" height="74" rx="10" ry="10" />
  <rect x="1581" y="5404" width="42" height="80" rx="10" ry="10" />
  <rect x="1694" y="5405" width="41" height="91" rx="10" ry="10" />
  <rect x="2149" y="5408" width="41" height="73" rx="10" ry="10" />
  <rect x="1884" y="5410" width="42" height="61" rx="10" ry="10" />
  <rect x="2149" y="5519" width="42" height="79" rx="10" ry="10" />
  <rect x="2035" y="5526" width="42" height="66" rx="10" ry="10" />
  <rect x="1694" y="5528" width="42" height="103" rx="10" ry="10" />
  <rect x="1581" y="5533" width="42" height="109" rx="10" ry="10" />
  <rect x="1884" y="5539" width="42" height="67" rx="10" ry="10" />
  <rect x="3701" y="5640" width="42" height="56" rx="10" ry="10" />
  <rect x="1694" y="5664" width="42" height="84" rx="10" ry="10" />
  <rect x="2149" y="5667" width="42" height="72" rx="10" ry="10" />
  <rect x="1581" y="5669" width="42" height="91" rx="10" ry="10" />
  <rect x="1884" y="5669" width="42" height="66" rx="10" ry="10" />
  <rect x="2490" y="5677" width="42" height="74" rx="10" ry="10" />
  <rect x="2035" y="5680" width="42" height="73" rx="10" ry="10" />
  <rect x="2149" y="5786" width="42" height="66" rx="10" ry="10" />
  <rect x="1885" y="5787" width="42" height="73" rx="10" ry="10" />
  <rect x="1695" y="5788" width="41" height="109" rx="10" ry="10" />
  <rect x="2340" y="5790" width="47" height="85" rx="10" ry="10" />
  <rect x="1582" y="5793" width="42" height="91" rx="10" ry="10" />
  <rect x="2035" y="5798" width="42" height="60" rx="10" ry="10" />
  <rect x="3702" y="5876" width="41" height="55" rx="10" ry="10" />
  <rect x="1582" y="5940" width="42" height="91" rx="10" ry="10" />
  <rect x="1885" y="5940" width="42" height="71" rx="10" ry="10" />
  <rect x="1695" y="5941" width="42" height="84" rx="10" ry="10" />
  <rect x="2341" y="5942" width="42" height="73" rx="10" ry="10" />
  <rect x="2150" y="5944" width="42" height="65" rx="10" ry="10" />
  <rect x="2605" y="5947" width="42" height="109" rx="10" ry="10" />
  <rect x="2341" y="6057" width="42" height="78" rx="10" ry="10" />
  <rect x="2150" y="6064" width="42" height="66" rx="10" ry="10" />
  <rect x="1696" y="6067" width="41" height="90" rx="10" ry="10" />
  <rect x="2492" y="6069" width="42" height="72" rx="10" ry="10" />
  <rect x="3702" y="6070" width="42" height="115" rx="10" ry="10" />
  <rect x="1583" y="6072" width="42" height="84" rx="10" ry="10" />
  <rect x="1886" y="6072" width="42" height="79" rx="10" ry="10" />
  <rect x="2492" y="6190" width="42" height="78" rx="10" ry="10" />
  <rect x="2341" y="6197" width="42" height="78" rx="10" ry="10" />
  <rect x="3814" y="6198" width="42" height="71" rx="10" ry="10" />
  <rect x="1696" y="6200" width="41" height="84" rx="10" ry="10" />
  <rect x="1583" y="6206" width="41" height="83" rx="10" ry="10" />
  <rect x="1886" y="6206" width="42" height="83" rx="10" ry="10" />
  <rect x="2795" y="6207" width="42" height="66" rx="10" ry="10" />
  <rect x="3664" y="6240" width="42" height="78" rx="10" ry="10" />
  <rect x="331" y="6313" width="42" height="170" rx="10" ry="10" />
  <rect x="3702" y="6326" width="42" height="158" rx="10" ry="10" />
  <rect x="2492" y="6360" width="41" height="49" rx="10" ry="10" />
  <rect x="2037" y="6362" width="41" height="42" rx="10" ry="10" />
  <rect x="3778" y="6362" width="41" height="92" rx="10" ry="10" />
  <rect x="255" y="6379" width="42" height="104" rx="10" ry="10" />
  <rect x="977" y="6463" width="41" height="237" rx="10" ry="10" />
  <rect x="3627" y="6467" width="41" height="78" rx="10" ry="10" />
  <rect x="1432" y="6468" width="42" height="225" rx="10" ry="10" />
  <rect x="2492" y="6471" width="42" height="457" rx="10" ry="10" />
  <rect x="2037" y="6472" width="41" height="146" rx="10" ry="10" />
  <rect x="3739" y="6473" width="42" height="79" rx="10" ry="10" />
  <rect x="3814" y="6478" width="42" height="72" rx="10" ry="10" />
  <rect x="293" y="6483" width="42" height="97" rx="10" ry="10" />
  <rect x="217" y="6489" width="42" height="78" rx="10" ry="10" />
  <rect x="2037" y="6656" width="42" height="73" rx="10" ry="10" />
  <rect x="2151" y="6662" width="42" height="67" rx="10" ry="10" />
  <rect x="1583" y="6663" width="42" height="73" rx="10" ry="10" />
  <rect x="1886" y="6663" width="42" height="67" rx="10" ry="10" />
  <rect x="1696" y="6664" width="42" height="73" rx="10" ry="10" />
  <rect x="2341" y="6666" width="42" height="93" rx="10" ry="10" />
  <rect x="2342" y="6786" width="42" height="93" rx="10" ry="10" />
  <rect x="1697" y="6790" width="42" height="72" rx="10" ry="10" />
  <rect x="2151" y="6794" width="42" height="72" rx="10" ry="10" />
  <rect x="1584" y="6795" width="42" height="79" rx="10" ry="10" />
  <rect x="1887" y="6795" width="42" height="66" rx="10" ry="10" />
  <rect x="2038" y="6799" width="41" height="55" rx="10" ry="10" />
  <rect x="2342" y="6912" width="42" height="85" rx="10" ry="10" />
  <rect x="256" y="6913" width="42" height="72" rx="10" ry="10" />
  <rect x="2038" y="6914" width="41" height="72" rx="10" ry="10" />
  <rect x="2152" y="6914" width="41" height="72" rx="10" ry="10" />
  <rect x="1887" y="6915" width="42" height="66" rx="10" ry="10" />
  <rect x="1697" y="6916" width="42" height="72" rx="10" ry="10" />
  <rect x="1584" y="6921" width="42" height="66" rx="10" ry="10" />
  <rect x="2342" y="7029" width="42" height="66" rx="10" ry="10" />
  <rect x="2152" y="7030" width="42" height="71" rx="10" ry="10" />
  <rect x="1887" y="7031" width="42" height="78" rx="10" ry="10" />
  <rect x="2038" y="7036" width="41" height="78" rx="10" ry="10" />
  <rect x="1584" y="7037" width="42" height="71" rx="10" ry="10" />
  <rect x="1697" y="7038" width="42" height="65" rx="10" ry="10" />
  <rect x="2152" y="7132" width="42" height="78" rx="10" ry="10" />
  <rect x="2342" y="7137" width="42" height="66" rx="10" ry="10" />
  <rect x="1697" y="7140" width="42" height="78" rx="10" ry="10" />
  <rect x="2038" y="7145" width="42" height="71" rx="10" ry="10" />
  <rect x="1887" y="7146" width="42" height="65" rx="10" ry="10" />
  <rect x="1584" y="7151" width="42" height="66" rx="10" ry="10" />
  <rect x="333" y="7172" width="42" height="158" rx="10" ry="10" />
  <rect x="3666" y="7176" width="42" height="77" rx="10" ry="10" />
  <rect x="3704" y="7182" width="42" height="171" rx="10" ry="10" />
  <rect x="3779" y="7201" width="42" height="110" rx="10" ry="10" />
  <rect x="2152" y="7242" width="42" height="109" rx="10" ry="10" />
  <rect x="256" y="7252" width="42" height="79" rx="10" ry="10" />
  <rect x="2607" y="7258" width="42" height="85" rx="10" ry="10" />
  <rect x="2683" y="7326" width="42" height="216" rx="10" ry="10" />
  <rect x="2228" y="7328" width="42" height="216" rx="10" ry="10" />
  <rect x="1621" y="7330" width="42" height="135" rx="10" ry="10" />
  <rect x="1167" y="7337" width="42" height="134" rx="10" ry="10" />
  <rect x="3741" y="7356" width="42" height="79" rx="10" ry="10" />
  <rect x="294" y="7363" width="42" height="73" rx="10" ry="10" />
  <rect x="3816" y="7367" width="41" height="67" rx="10" ry="10" />
  <rect x="218" y="7369" width="42" height="73" rx="10" ry="10" />
  <rect x="3628" y="7387" width="42" height="74" rx="10" ry="10" />
  <rect x="2343" y="7482" width="41" height="62" rx="10" ry="10" />
  <rect x="2531" y="7482" width="42" height="61" rx="10" ry="10" />
  <rect x="2076" y="7483" width="41" height="68" rx="10" ry="10" />
  <rect x="1887" y="7491" width="42" height="67" rx="10" ry="10" />
  <rect x="1773" y="7492" width="41" height="66" rx="10" ry="10" />
  <rect x="2343" y="7588" width="42" height="73" rx="10" ry="10" />
  <rect x="2076" y="7589" width="42" height="72" rx="10" ry="10" />
  <rect x="1888" y="7590" width="42" height="66" rx="10" ry="10" />
  <rect x="1773" y="7591" width="42" height="59" rx="10" ry="10" />
  <rect x="2532" y="7594" width="42" height="66" rx="10" ry="10" />
  <rect x="2228" y="7601" width="42" height="54" rx="10" ry="10" />
  <rect x="3666" y="7628" width="42" height="78" rx="10" ry="10" />
  <rect x="3704" y="7640" width="42" height="146" rx="10" ry="10" />
  <rect x="3780" y="7641" width="42" height="151" rx="10" ry="10" />
  <rect x="333" y="7659" width="43" height="151" rx="10" ry="10" />
  <rect x="2874" y="7726" width="42" height="104" rx="10" ry="10" />
  <rect x="2419" y="7728" width="42" height="109" rx="10" ry="10" />
  <rect x="257" y="7731" width="42" height="79" rx="10" ry="10" />
  <rect x="2344" y="7802" width="42" height="77" rx="10" ry="10" />
  <rect x="1320" y="7804" width="41" height="601" rx="10" ry="10" />
  <rect x="1774" y="7809" width="42" height="591" rx="10" ry="10" />
  <rect x="2798" y="7812" width="41" height="375" rx="10" ry="10" />
  <rect x="3630" y="7829" width="42" height="78" rx="10" ry="10" />
  <rect x="3743" y="7829" width="42" height="78" rx="10" ry="10" />
  <rect x="3818" y="7829" width="42" height="77" rx="10" ry="10" />
  <rect x="220" y="7846" width="42" height="77" rx="10" ry="10" />
  <rect x="296" y="7853" width="42" height="77" rx="10" ry="10" />
  <rect x="1890" y="7948" width="42" height="66" rx="10" ry="10" />
  <rect x="2345" y="7952" width="42" height="54" rx="10" ry="10" />
  <rect x="2041" y="7953" width="41" height="60" rx="10" ry="10" />
  <rect x="2230" y="7953" width="42" height="72" rx="10" ry="10" />
  <rect x="2686" y="7957" width="42" height="66" rx="10" ry="10" />
  <rect x="2496" y="7958" width="41" height="54" rx="10" ry="10" />
  <rect x="3782" y="8072" width="42" height="78" rx="10" ry="10" />
  <rect x="2496" y="8091" width="42" height="66" rx="10" ry="10" />
  <rect x="2686" y="8096" width="42" height="91" rx="10" ry="10" />
  <rect x="2231" y="8098" width="42" height="54" rx="10" ry="10" />
  <rect x="1890" y="8099" width="42" height="54" rx="10" ry="10" />
  <rect x="2345" y="8103" width="42" height="61" rx="10" ry="10" />
  <rect x="2041" y="8104" width="42" height="54" rx="10" ry="10" />
  <rect x="2231" y="8225" width="42" height="72" rx="10" ry="10" />
  <rect x="2346" y="8230" width="41" height="61" rx="10" ry="10" />
  <rect x="2496" y="8230" width="42" height="60" rx="10" ry="10" />
  <rect x="2686" y="8230" width="42" height="66" rx="10" ry="10" />
  <rect x="1890" y="8232" width="42" height="66" rx="10" ry="10" />
  <rect x="2041" y="8237" width="42" height="54" rx="10" ry="10" />
  <rect x="2231" y="8346" width="42" height="66" rx="10" ry="10" />
  <rect x="2496" y="8351" width="42" height="67" rx="10" ry="10" />
  <rect x="1891" y="8352" width="42" height="67" rx="10" ry="10" />
  <rect x="2687" y="8356" width="41" height="66" rx="10" ry="10" />
  <rect x="2346" y="8357" width="41" height="66" rx="10" ry="10" />
  <rect x="2951" y="8362" width="41" height="135" rx="10" ry="10" />
  <rect x="2041" y="8364" width="42" height="79" rx="10" ry="10" />
  <rect x="259" y="8377" width="43" height="79" rx="10" ry="10" />
  <rect x="2497" y="8486" width="41" height="67" rx="10" ry="10" />
  <rect x="2687" y="8492" width="42" height="67" rx="10" ry="10" />
  <rect x="2231" y="8493" width="42" height="67" rx="10" ry="10" />
  <rect x="1891" y="8494" width="42" height="74" rx="10" ry="10" />
  <rect x="2800" y="8498" width="42" height="67" rx="10" ry="10" />
  <rect x="2346" y="8499" width="42" height="61" rx="10" ry="10" />
  <rect x="2042" y="8500" width="41" height="98" rx="10" ry="10" />
  <rect x="2042" y="8613" width="42" height="129" rx="10" ry="10" />
  <rect x="3141" y="8624" width="42" height="111" rx="10" ry="10" />
  <rect x="2951" y="8630" width="42" height="80" rx="10" ry="10" />
  <rect x="2800" y="8631" width="42" height="98" rx="10" ry="10" />
  <rect x="2232" y="8632" width="42" height="86" rx="10" ry="10" />
  <rect x="1891" y="8633" width="42" height="67" rx="10" ry="10" />
  <rect x="2346" y="8637" width="42" height="68" rx="10" ry="10" />
  <rect x="2347" y="8775" width="41" height="73" rx="10" ry="10" />
  <rect x="1892" y="8776" width="42" height="67" rx="10" ry="10" />
  <rect x="2688" y="8780" width="41" height="73" rx="10" ry="10" />
  <rect x="2801" y="8780" width="42" height="73" rx="10" ry="10" />
  <rect x="2952" y="8780" width="42" height="79" rx="10" ry="10" />
  <rect x="2232" y="8782" width="42" height="73" rx="10" ry="10" />
  <rect x="2042" y="8788" width="42" height="73" rx="10" ry="10" />
  <rect x="3707" y="8823" width="42" height="79" rx="10" ry="10" />
  <rect x="3255" y="8890" width="42" height="66" rx="10" ry="10" />
  <rect x="2232" y="8892" width="42" height="66" rx="10" ry="10" />
  <rect x="2801" y="8897" width="42" height="65" rx="10" ry="10" />
  <rect x="2952" y="8897" width="41" height="65" rx="10" ry="10" />
  <rect x="1891" y="8898" width="42" height="60" rx="10" ry="10" />
  <rect x="2042" y="8898" width="42" height="65" rx="10" ry="10" />
  <rect x="2347" y="8898" width="41" height="59" rx="10" ry="10" />
  <rect x="3708" y="8957" width="41" height="202" rx="10" ry="10" />
  <rect x="337" y="8990" width="42" height="195" rx="10" ry="10" />
  <rect x="260" y="8995" width="42" height="85" rx="10" ry="10" />
  <rect x="3670" y="9061" width="41" height="73" rx="10" ry="10" />
  <rect x="1247" y="9136" width="42" height="235" rx="10" ry="10" />
  <rect x="2347" y="9136" width="41" height="241" rx="10" ry="10" />
  <rect x="1702" y="9137" width="42" height="229" rx="10" ry="10" />
  <rect x="2801" y="9148" width="42" height="499" rx="10" ry="10" />
  <rect x="3820" y="9173" width="42" height="78" rx="10" ry="10" />
  <rect x="3745" y="9180" width="42" height="78" rx="10" ry="10" />
  <rect x="299" y="9181" width="42" height="78" rx="10" ry="10" />
  <rect x="223" y="9186" width="42" height="86" rx="10" ry="10" />
  <rect x="3632" y="9241" width="42" height="67" rx="10" ry="10" />
  <rect x="2157" y="9311" width="41" height="66" rx="10" ry="10" />
  <rect x="1892" y="9312" width="42" height="72" rx="10" ry="10" />
  <rect x="2688" y="9316" width="42" height="60" rx="10" ry="10" />
  <rect x="2043" y="9323" width="41" height="48" rx="10" ry="10" />
  <rect x="2232" y="9323" width="42" height="55" rx="10" ry="10" />
  <rect x="2498" y="9323" width="41" height="54" rx="10" ry="10" />
  <rect x="2043" y="9429" width="41" height="85" rx="10" ry="10" />
  <rect x="2157" y="9430" width="41" height="71" rx="10" ry="10" />
  <rect x="1892" y="9435" width="42" height="61" rx="10" ry="10" />
  <rect x="1702" y="9436" width="42" height="72" rx="10" ry="10" />
  <rect x="2688" y="9440" width="42" height="85" rx="10" ry="10" />
  <rect x="2232" y="9441" width="42" height="73" rx="10" ry="10" />
  <rect x="2347" y="9441" width="42" height="60" rx="10" ry="10" />
  <rect x="2498" y="9441" width="41" height="60" rx="10" ry="10" />
  <rect x="1702" y="9539" width="42" height="121" rx="10" ry="10" />
  <rect x="2498" y="9556" width="41" height="60" rx="10" ry="10" />
  <rect x="2156" y="9563" width="42" height="66" rx="10" ry="10" />
  <rect x="2347" y="9563" width="42" height="66" rx="10" ry="10" />
  <rect x="1892" y="9564" width="42" height="96" rx="10" ry="10" />
  <rect x="2688" y="9568" width="42" height="78" rx="10" ry="10" />
  <rect x="2043" y="9569" width="41" height="102" rx="10" ry="10" />
  <rect x="2232" y="9569" width="42" height="60" rx="10" ry="10" />
  <rect x="3784" y="9618" width="41" height="77" rx="10" ry="10" />
  <rect x="2157" y="9714" width="41" height="78" rx="10" ry="10" />
  <rect x="1892" y="9715" width="42" height="96" rx="10" ry="10" />
  <rect x="2688" y="9719" width="42" height="60" rx="10" ry="10" />
  <rect x="2043" y="9720" width="41" height="90" rx="10" ry="10" />
  <rect x="2232" y="9720" width="42" height="72" rx="10" ry="10" />
  <rect x="2347" y="9720" width="42" height="65" rx="10" ry="10" />
  <rect x="2498" y="9720" width="42" height="54" rx="10" ry="10" />
  <rect x="2952" y="9720" width="42" height="114" rx="10" ry="10" />
  <rect x="1702" y="9721" width="42" height="90" rx="10" ry="10" />
  <rect x="261" y="9738" width="42" height="71" rx="10" ry="10" />
  <rect x="3709" y="9834" width="41" height="54" rx="10" ry="10" />
  <rect x="1703" y="9842" width="41" height="107" rx="10" ry="10" />
  <rect x="2689" y="9846" width="42" height="65" rx="10" ry="10" />
  <rect x="2348" y="9847" width="42" height="71" rx="10" ry="10" />
  <rect x="1893" y="9848" width="42" height="71" rx="10" ry="10" />
  <rect x="2802" y="9852" width="42" height="90" rx="10" ry="10" />
  <rect x="2043" y="9853" width="42" height="84" rx="10" ry="10" />
  <rect x="2157" y="9853" width="42" height="72" rx="10" ry="10" />
  <rect x="2233" y="9853" width="42" height="65" rx="10" ry="10" />
  <rect x="2498" y="9853" width="42" height="59" rx="10" ry="10" />
  <rect x="1703" y="9975" width="42" height="83" rx="10" ry="10" />
  <rect x="2689" y="9978" width="42" height="73" rx="10" ry="10" />
  <rect x="2348" y="9979" width="42" height="72" rx="10" ry="10" />
  <rect x="3143" y="9979" width="42" height="90" rx="10" ry="10" />
  <rect x="2044" y="9980" width="42" height="90" rx="10" ry="10" />
  <rect x="2158" y="9980" width="41" height="66" rx="10" ry="10" />
  <rect x="2234" y="9980" width="41" height="72" rx="10" ry="10" />
  <rect x="1893" y="9986" width="42" height="78" rx="10" ry="10" />
  <rect x="1703" y="10089" width="42" height="84" rx="10" ry="10" />
  <rect x="2689" y="10105" width="42" height="66" rx="10" ry="10" />
  <rect x="2044" y="10106" width="42" height="72" rx="10" ry="10" />
  <rect x="1893" y="10107" width="42" height="72" rx="10" ry="10" />
  <rect x="2802" y="10111" width="42" height="61" rx="10" ry="10" />
  <rect x="2158" y="10112" width="41" height="73" rx="10" ry="10" />
  <rect x="2234" y="10112" width="41" height="66" rx="10" ry="10" />
  <rect x="2348" y="10112" width="42" height="66" rx="10" ry="10" />
  <rect x="2953" y="10118" width="42" height="59" rx="10" ry="10" />
  <rect x="3709" y="10130" width="42" height="90" rx="10" ry="10" />
  <rect x="3256" y="10209" width="42" height="78" rx="10" ry="10" />
  <rect x="2348" y="10215" width="42" height="67" rx="10" ry="10" />
  <rect x="1703" y="10216" width="42" height="66" rx="10" ry="10" />
  <rect x="2802" y="10221" width="42" height="66" rx="10" ry="10" />
  <rect x="2953" y="10221" width="41" height="60" rx="10" ry="10" />
  <rect x="1893" y="10222" width="42" height="73" rx="10" ry="10" />
  <rect x="2044" y="10222" width="41" height="60" rx="10" ry="10" />
  <rect x="2157" y="10222" width="42" height="72" rx="10" ry="10" />
  <rect x="2233" y="10222" width="42" height="66" rx="10" ry="10" />
  <rect x="3709" y="10296" width="41" height="180" rx="10" ry="10" />
  <rect x="262" y="10301" width="42" height="80" rx="10" ry="10" />
  <rect x="338" y="10301" width="42" height="192" rx="10" ry="10" />
  <rect x="3671" y="10327" width="41" height="92" rx="10" ry="10" />
  <rect x="1210" y="10433" width="42" height="200" rx="10" ry="10" />
  <rect x="2348" y="10447" width="44" height="181" rx="10" ry="10" />
  <rect x="1668" y="10454" width="41" height="169" rx="10" ry="10" />
  <rect x="2802" y="10459" width="42" height="162" rx="10" ry="10" />
  <rect x="3821" y="10471" width="41" height="68" rx="10" ry="10" />
  <rect x="3746" y="10472" width="42" height="73" rx="10" ry="10" />
  <rect x="300" y="10490" width="42" height="73" rx="10" ry="10" />
  <rect x="224" y="10495" width="42" height="68" rx="10" ry="10" />
  <rect x="3633" y="10528" width="42" height="81" rx="10" ry="10" />
  <rect x="1778" y="10624" width="42" height="48" rx="10" ry="10" />
  <rect x="1893" y="10624" width="42" height="54" rx="10" ry="10" />
  <rect x="2006" y="10629" width="41" height="48" rx="10" ry="10" />
  <rect x="2233" y="10630" width="42" height="48" rx="10" ry="10" />
  <rect x="2006" y="10716" width="41" height="72" rx="10" ry="10" />
  <rect x="1778" y="10717" width="42" height="72" rx="10" ry="10" />
  <rect x="1893" y="10717" width="42" height="72" rx="10" ry="10" />
  <rect x="2233" y="10723" width="42" height="71" rx="10" ry="10" />
  <rect x="3709" y="10782" width="42" height="121" rx="10" ry="10" />
  <rect x="3784" y="10782" width="42" height="77" rx="10" ry="10" />
  <rect x="262" y="10800" width="42" height="84" rx="10" ry="10" />
  <rect x="338" y="10800" width="42" height="151" rx="10" ry="10" />
  <rect x="3671" y="10823" width="42" height="73" rx="10" ry="10" />
  <rect x="1173" y="10892" width="41" height="172" rx="10" ry="10" />
  <rect x="2801" y="10903" width="42" height="161" rx="10" ry="10" />
  <rect x="1626" y="10905" width="42" height="159" rx="10" ry="10" />
  <rect x="2347" y="10910" width="43" height="147" rx="10" ry="10" />
  <rect x="3746" y="10916" width="42" height="80" rx="10" ry="10" />
  <rect x="3821" y="10916" width="41" height="72" rx="10" ry="10" />
  <rect x="223" y="10928" width="42" height="79" rx="10" ry="10" />
  <rect x="299" y="10935" width="42" height="79" rx="10" ry="10" />
  <rect x="3633" y="10972" width="41" height="79" rx="10" ry="10" />
  <rect x="2233" y="11052" width="41" height="73" rx="10" ry="10" />
  <rect x="1777" y="11053" width="42" height="67" rx="10" ry="10" />
  <rect x="1892" y="11053" width="42" height="48" rx="10" ry="10" />
  <rect x="2005" y="11065" width="41" height="48" rx="10" ry="10" />
  <rect x="1777" y="11158" width="42" height="67" rx="10" ry="10" />
  <rect x="1892" y="11158" width="42" height="73" rx="10" ry="10" />
  <rect x="2005" y="11164" width="42" height="47" rx="10" ry="10" />
  <rect x="2233" y="11164" width="42" height="72" rx="10" ry="10" />
  <rect x="338" y="11218" width="42" height="147" rx="10" ry="10" />
  <rect x="3671" y="11224" width="42" height="66" rx="10" ry="10" />
  <rect x="3709" y="11224" width="42" height="141" rx="10" ry="10" />
  <rect x="3784" y="11224" width="42" height="73" rx="10" ry="10" />
  <rect x="262" y="11230" width="41" height="67" rx="10" ry="10" />
  <rect x="2386" y="11336" width="42" height="214" rx="10" ry="10" />
  <rect x="1590" y="11348" width="42" height="213" rx="10" ry="10" />
  <rect x="3822" y="11353" width="41" height="60" rx="10" ry="10" />
  <rect x="2840" y="11354" width="42" height="195" rx="10" ry="10" />
  <rect x="3747" y="11354" width="42" height="79" rx="10" ry="10" />
  <rect x="224" y="11359" width="42" height="67" rx="10" ry="10" />
  <rect x="300" y="11360" width="42" height="61" rx="10" ry="10" />
  <rect x="1135" y="11367" width="42" height="218" rx="10" ry="10" />
  <rect x="3634" y="11397" width="41" height="79" rx="10" ry="10" />
  <rect x="1931" y="11485" width="42" height="66" rx="10" ry="10" />
  <rect x="1779" y="11490" width="41" height="65" rx="10" ry="10" />
  <rect x="2044" y="11496" width="42" height="59" rx="10" ry="10" />
  <rect x="2234" y="11496" width="41" height="59" rx="10" ry="10" />
  <rect x="1932" y="11593" width="41" height="60" rx="10" ry="10" />
  <rect x="2234" y="11593" width="42" height="71" rx="10" ry="10" />
  <rect x="1779" y="11599" width="41" height="54" rx="10" ry="10" />
  <rect x="2044" y="11599" width="42" height="59" rx="10" ry="10" />
</svg>
